<?xml version="1.0" encoding="utf-8"?>
<!-- Generator: Adobe Illustrator 22.0.0, SVG Export Plug-In . SVG Version: 6.00 Build 0)  -->
<svg version="1.1" id="Layer_1" xmlns="http://www.w3.org/2000/svg" xmlns:xlink="http://www.w3.org/1999/xlink" x="0px" y="0px"
	 viewBox="0 0 512 512" style="enable-background:new 0 0 512 512;" xml:space="preserve">
<style type="text/css">
	.st0{fill:#F9B54C;}
	.st1{fill:#FFFFFF;}
</style>
<path class="st0" d="M289.8,32.9l45.1,104.4c5.3,12.4,17,20.8,30.4,22.1L478.5,170c32.2,3,45.2,43,20.9,64.4l-85.4,75.1
	c-10.1,8.9-14.6,22.6-11.6,35.7l24.9,110.9c7.1,31.5-27,56.3-54.8,39.8l-97.8-58c-11.6-6.9-26-6.9-37.6,0l-97.8,58
	c-27.8,16.5-61.8-8.3-54.8-39.8l24.9-110.9c3-13.1-1.5-26.8-11.6-35.7l-85.4-75.1C-11.7,213,1.3,173,33.5,170l113.2-10.6
	c13.4-1.3,25.1-9.7,30.4-22.1l45.1-104.4C235,3.2,277,3.2,289.8,32.9z"/>
<path class="st1" d="M279.5,101.4l31.2,72.3c3.7,8.6,11.8,14.4,21.1,15.3l78.4,7.3c22.3,2.1,31.3,29.8,14.5,44.6l-59.1,52
	c-7,6.2-10.1,15.7-8,24.8l17.3,76.9c4.9,21.8-18.7,39-37.9,27.6L269,382.1c-8-4.8-18-4.8-26,0l-67.8,40.2
	c-19.3,11.4-42.8-5.7-37.9-27.6l17.3-76.9c2-9.1-1-18.6-8-24.8l-59.1-52c-16.8-14.8-7.8-42.5,14.5-44.6l78.4-7.3
	c9.3-0.9,17.4-6.7,21.1-15.3l31.2-72.3C241.4,80.9,270.6,80.9,279.5,101.4z"/>
</svg>
