<?xml version="1.0" encoding="utf-8"?>
<!-- Generator: Adobe Illustrator 22.0.0, SVG Export Plug-In . SVG Version: 6.00 Build 0)  -->
<svg version="1.1"
	 id="Layer_1" inkscape:version="0.91 r13725" sodipodi:docname="AT&amp;T_logo_2016.svg" xmlns:cc="http://creativecommons.org/ns#" xmlns:dc="http://purl.org/dc/elements/1.1/" xmlns:inkscape="http://www.inkscape.org/namespaces/inkscape" xmlns:rdf="http://www.w3.org/1999/02/22-rdf-syntax-ns#" xmlns:sodipodi="http://sodipodi.sourceforge.net/DTD/sodipodi-0.dtd" xmlns:svg="http://www.w3.org/2000/svg"
	 xmlns="http://www.w3.org/2000/svg" xmlns:xlink="http://www.w3.org/1999/xlink" x="0px" y="0px" viewBox="0 0 2627.6 411.1"
	 style="enable-background:new 0 0 2627.6 411.1;" xml:space="preserve">
<style type="text/css">
	.st0{fill:#FFFFFF;}
	.st1{fill:#00A8E0;}
	.st2{fill:none;stroke:#FFFFFF;stroke-width:9;stroke-miterlimit:10;}
	.st3{fill:#FFFFFF;stroke:#FFFFFF;stroke-width:5;stroke-miterlimit:10;}
</style>
<sodipodi:namedview  bordercolor="#666666" borderopacity="1" gridtolerance="10" guidetolerance="10" id="namedview11" inkscape:current-layer="Layer_1" inkscape:cx="382.59808" inkscape:cy="259.30508" inkscape:pageopacity="0" inkscape:pageshadow="2" inkscape:window-height="709" inkscape:window-maximized="1" inkscape:window-width="1366" inkscape:window-x="-8" inkscape:window-y="-8" inkscape:zoom="0.71181136" objecttolerance="10" pagecolor="#ffffff" showgrid="false">
	</sodipodi:namedview>
<path id="path5" class="st0" d="M925.5,287.9c-2.7,0-4.5-1.9-4.5-4.5V150.9h-45c-2.7,0-4.5-1.8-4.5-4.5v-18.3c0-2.7,1.8-4.5,4.5-4.5
	h119.8c2.7,0,4.5,1.9,4.5,4.5v18.3c0,2.7-1.8,4.5-4.5,4.5h-45v132.5c0,2.7-1.9,4.5-4.5,4.5H925.5 M580.6,221.8L557,154l-23.8,67.8
	H580.6z M633,282.6c1,2.7-0.6,5.4-3.5,5.4h-21.4c-3.1,0-4.9-1.4-6-4.3l-12.1-35h-66.4l-12.1,34.9c-1,2.9-2.9,4.3-6,4.3h-20.1
	c-2.7,0-4.5-2.7-3.5-5.4l55.7-154.9c1-2.9,2.9-4.1,6-4.1h27.5c3.1,0,5.1,1.2,6.2,4.1L633,282.6 M792.7,265.7
	c13.1,0,22-6.4,29.2-17.3l-33.3-35.8c-12.8,7.2-21,14.4-21,28.8C767.6,255.7,779.1,265.7,792.7,265.7 M801.9,145.3
	c-10.7,0-16.9,6.8-16.9,15.8c0,7,3.7,13.1,12.1,22.2c14.6-8.4,20.8-13.6,20.8-22.6C817.9,152.3,812.6,145.3,801.9,145.3 M893,282.2
	c2.7,2.9,1,5.8-2.3,5.8h-26.1c-3.5,0-5.3-0.8-7.6-3.5l-15.6-17.3c-10.5,14-25.1,24.4-49.3,24.4c-30,0-53.7-18.1-53.7-49.1
	c0-23.8,12.8-36.6,32.1-47.3c-9.5-10.9-13.8-22.4-13.8-32.5c0-25.5,17.9-42.9,44.8-42.9c27.5,0,44.4,16.2,44.4,40.3
	c0,20.5-14.8,32-30.4,40.7l23,24.9l12.9-22.6c1.6-2.7,3.5-3.7,6.8-3.7h19.9c3.3,0,5.1,2.3,3.1,5.8l-23,39.4L893,282.2 M687.8,287.9
	c2.7,0,4.5-1.9,4.5-4.5V150.9h45c2.7,0,4.5-1.8,4.5-4.5v-18.3c0-2.7-1.8-4.5-4.5-4.5H617.5c-2.7,0-4.5,1.9-4.5,4.5v18.3
	c0,2.7,1.8,4.5,4.5,4.5h45v132.5c0,2.7,1.9,4.5,4.5,4.5H687.8L687.8,287.9z"/>
<path id="path9" class="st1" d="M79.5,367.9c34.9,27,78.6,43.2,126.1,43.2c51.9,0,99.3-19.3,135.5-50.9c0.4-0.4,0.2-0.6-0.2-0.4
	c-16.2,10.8-62.4,34.5-135.2,34.5c-63.3,0-103.2-14.1-125.8-26.7C79.4,367.3,79.2,367.6,79.5,367.9 M219.6,378.4
	c50.6,0,106.2-13.8,139.5-41.1c9.1-7.4,17.8-17.3,25.5-30.6c4.5-7.7,8.8-16.8,12.4-25.7c0.2-0.4-0.1-0.6-0.4-0.2
	c-30.9,45.5-120.5,73.9-212.9,73.9c-65.4,0-135.7-20.9-163.2-60.8c-0.3-0.4-0.5-0.2-0.4,0.2C45.6,348.6,123.4,378.4,219.6,378.4
	 M164.3,287.9c-105.2,0-154.9-49-163.9-82.5C0.3,205,0,205.1,0,205.5c0,11.3,1.1,25.8,3.1,35.4c0.9,4.7,4.7,12.1,10.3,17.9
	c25.5,26.6,89,63.8,199,63.8c149.9,0,184.2-49.9,191.2-66.4c5-11.7,7.6-33,7.6-50.8c0-4.3-0.1-7.8-0.3-11.1c0-0.5-0.3-0.6-0.4-0.1
	C403,234.5,275,287.9,164.3,287.9 M19.8,117.4c-6,12-12.7,32.2-14.7,42.6c-0.9,4.5-0.5,6.6,1.1,10c12.6,26.8,76.4,69.6,225.2,69.6
	c90.8,0,161.3-22.3,172.7-63c2.1-7.5,2.2-15.4-0.5-26.1c-3-11.9-8.7-25.8-13.5-35.6c-0.2-0.3-0.4-0.3-0.4,0.1
	c1.8,53.4-147.1,87.8-222.2,87.8c-81.4,0-149.2-32.4-149.2-73.4c0-3.9,0.8-7.9,1.8-12C20.3,117.1,20,117,19.8,117.4 M341.4,51.8
	c0.9,1.4,1.3,2.8,1.3,4.7c0,22.8-69.9,63.2-181.1,63.2c-81.7,0-97.1-30.3-97.1-49.6c0-6.9,2.6-13.9,8.5-21.1c0.3-0.4,0-0.6-0.3-0.3
	c-10.6,9-20.4,19.1-28.9,30.1c-4.1,5.2-6.6,9.8-6.6,12.5c0,40,100.2,68.9,193.9,68.9c99.8,0,144.4-32.6,144.4-61.2
	c0-10.2-4-16.2-14.2-27.8c-6.6-7.5-12.9-13.7-19.5-19.7C341.4,51.3,341.2,51.5,341.4,51.8 M310.8,29C280,10.5,244.2,0,205.6,0
	C166.8,0,129.9,10.9,99,29.8C89.7,35.5,84.5,40.1,84.5,46c0,17.3,40.5,36,112.4,36c71.1,0,126.3-20.4,126.3-40.1
	C323.2,37.2,319.1,33.9,310.8,29"/>
<line class="st2" x1="1078" y1="82" x2="1078" y2="329.4"/>
<g>
	<path class="st3" d="M1169.1,133.8h35.5c35.3,0,41.7,15,41.7,49.3V231c0,33.1-7.7,47.9-42.1,47.9H1169L1169.1,133.8L1169.1,133.8z
		 M1178.5,142.2v127.5h25.8c31.8,0,32.7-13.7,32.7-38.7v-48.3c0-25.2-0.9-40.4-32.7-40.4h-25.8V142.2z"/>
	<path class="st3" d="M1332.7,249c0,19.9-10.2,30.5-32.5,30.5c-23.7,0-34.8-10.9-34.8-40.8v-29.5c0-30.1,11.1-41.5,34.8-41.5
		c25.4,0,33.8,12.6,33.8,41.5v16.4h-59.6V238c0,22.4,5.3,33.1,25.8,33.1c20.1,0,24.1-9,24.1-22L1332.7,249L1332.7,249z
		 M1325.8,216.9v-7.5c0-21.1-3.8-33.8-25.6-33.8c-20.3,0-25.8,10.2-25.8,33.3v8.1h51.4V216.9z"/>
	<path class="st3" d="M1360.5,248.3c0,12.8,6.6,22.2,25.9,22.2c16.9,0,25.4-8.3,25.4-22.4c0-19.9-15.8-20.3-31.2-22.4
		c-14.7-1.9-29.1-5.5-29.1-28.8c0-18,11.7-29.3,34-29.3c23.3,0,33.3,11.1,33.3,29.1h-9.2c-0.4-13.5-7.1-20.3-23.9-20.3
		c-16.9,0-24.3,7.9-24.3,20.3c0,19,13.2,19.2,27.3,21.1c16,2.3,32.9,5.6,32.9,30.1c0,19.2-11.1,31.6-35.2,31.6
		c-21.4,0-35.3-8.5-35.3-31.2L1360.5,248.3L1360.5,248.3z"/>
	<path class="st3" d="M1453.2,140.2c0,8.8-13.9,9-13.9,0C1439.3,131.3,1453.2,131.1,1453.2,140.2z M1451.1,278.9h-9.2V168h9.2V278.9
		z"/>
	<path class="st3" d="M1486.1,293.8c0.6,11.7,5.1,18.8,22.9,18.8c20.9,0,26.3-9.6,26.3-32.1v-14.1c-5.5,10.2-15,13.2-27.4,13.2
		c-22.4,0-33.7-10-33.7-37.8v-34.2c0-29.7,11.3-38.7,35.3-39.3c13,0,21.6,4.1,26.5,13.7v-12.2h8.5v110.7c0,30.1-11.8,40.8-35.5,40.8
		c-20.7,0-30.8-8.3-31.8-27.4L1486.1,293.8L1486.1,293.8z M1535,210.7c0-21.2-5.6-33.7-25.4-33.7c-19.7,0.4-25.9,7.5-25.9,30.6v34.2
		c0.4,22.6,8.1,28.4,25.2,28.4c18.8,0,26.1-10,26.1-28.2L1535,210.7L1535,210.7z"/>
	<path class="st3" d="M1577.1,169.7l0.8,11.7c5.1-8.1,14.1-13.7,27.6-13.7c25.8,0,33.7,11.7,33.7,40V279h-9.4v-71.3
		c0-24.4-5.5-31.8-25.2-31.8s-26.3,13.7-26.3,26.3v76.7h-9.4V169.7H1577.1z"/>
	<path class="st3" d="M1778.1,133.8v8.6h-56.2v54.5h50.6v8.8h-50.6v63.9h60v9.2h-69.4v-145H1778.1z"/>
	<path class="st3" d="M1810.8,169.7l0.8,11.7c5.1-8.1,14.1-13.7,27.6-13.7c25.8,0,33.7,11.7,33.7,40V279h-9.4v-71.3
		c0-24.4-5.5-31.8-25.2-31.8s-26.3,13.7-26.3,26.3v76.7h-9.4V169.7H1810.8z"/>
	<path class="st3" d="M1907,293.8c0.6,11.7,5.1,18.8,22.9,18.8c20.9,0,26.3-9.6,26.3-32.1v-14.1c-5.5,10.2-15,13.2-27.4,13.2
		c-22.4,0-33.7-10-33.7-37.8v-34.2c0-29.7,11.3-38.7,35.3-39.3c13,0,21.6,4.1,26.5,13.7v-12.2h8.5v110.7c0,30.1-11.8,40.8-35.5,40.8
		c-20.7,0-30.8-8.3-31.8-27.4L1907,293.8L1907,293.8z M1955.9,210.7c0-21.2-5.6-33.7-25.4-33.7c-19.7,0.4-25.9,7.5-25.9,30.6v34.2
		c0.4,22.6,8.1,28.4,25.2,28.4c18.8,0,26.1-10,26.1-28.2L1955.9,210.7L1955.9,210.7z"/>
	<path class="st3" d="M2000.7,140.2c0,8.8-13.9,9-13.9,0C1986.7,131.3,2000.7,131.1,2000.7,140.2z M1998.6,278.9h-9.2V168h9.2V278.9
		z"/>
	<path class="st3" d="M2035.4,169.7l0.8,11.7c5.1-8.1,14.1-13.7,27.6-13.7c25.8,0,33.7,11.7,33.7,40V279h-9.4v-71.3
		c0-24.4-5.5-31.8-25.2-31.8s-26.3,13.7-26.3,26.3v76.7h-9.4V169.7H2035.4z"/>
	<path class="st3" d="M2187.7,249c0,19.9-10.2,30.5-32.5,30.5c-23.7,0-34.8-10.9-34.8-40.8v-29.5c0-30.1,11.1-41.5,34.8-41.5
		c25.4,0,33.8,12.6,33.8,41.5v16.4h-59.6V238c0,22.4,5.3,33.1,25.8,33.1c20.1,0,24.1-9,24.1-22L2187.7,249L2187.7,249z
		 M2180.8,216.9v-7.5c0-21.1-3.8-33.8-25.6-33.8c-20.3,0-25.8,10.2-25.8,33.3v8.1h51.4V216.9z"/>
	<path class="st3" d="M2276.3,249c0,19.9-10.2,30.5-32.5,30.5c-23.7,0-34.8-10.9-34.8-40.8v-29.5c0-30.1,11.1-41.5,34.8-41.5
		c25.4,0,33.8,12.6,33.8,41.5v16.4H2218V238c0,22.4,5.3,33.1,25.8,33.1c20.1,0,24.1-9,24.1-22L2276.3,249L2276.3,249z M2269.3,216.9
		v-7.5c0-21.1-3.8-33.8-25.6-33.8c-20.3,0-25.8,10.2-25.8,33.3v8.1h51.4V216.9z"/>
	<path class="st3" d="M2307.3,168l0.6,13.2c4.5-9,15.8-15.4,29.3-13v8.8c-16.7-2.6-28.8,8.1-28.8,23.7l-0.2,78.2h-9.4V168H2307.3z"
		/>
	<path class="st3" d="M2368.4,140.2c0,8.8-13.9,9-13.9,0C2354.5,131.3,2368.4,131.1,2368.4,140.2z M2366.3,278.9h-9.2V168h9.2V278.9
		z"/>
	<path class="st3" d="M2403.2,169.7l0.8,11.7c5.1-8.1,14.1-13.7,27.6-13.7c25.8,0,33.7,11.7,33.7,40V279h-9.4v-71.3
		c0-24.4-5.5-31.8-25.2-31.8s-26.3,13.7-26.3,26.3v76.7h-9.4V169.7H2403.2z"/>
	<path class="st3" d="M2499.4,293.8c0.6,11.7,5.1,18.8,22.9,18.8c20.9,0,26.3-9.6,26.3-32.1v-14.1c-5.5,10.2-15,13.2-27.4,13.2
		c-22.4,0-33.7-10-33.7-37.8v-34.2c0-29.7,11.3-38.7,35.3-39.3c13,0,21.6,4.1,26.5,13.7v-12.2h8.5v110.7c0,30.1-11.8,40.8-35.5,40.8
		c-20.7,0-30.8-8.3-31.8-27.4L2499.4,293.8L2499.4,293.8z M2548.3,210.7c0-21.2-5.6-33.7-25.4-33.7c-19.7,0.4-25.9,7.5-25.9,30.6
		v34.2c0.4,22.6,8.1,28.4,25.2,28.4c18.8,0,26.1-10,26.1-28.2L2548.3,210.7L2548.3,210.7z"/>
</g>
</svg>
