<?xml version="1.0" encoding="utf-8"?>
<!-- Generator: Adobe Illustrator 22.0.0, SVG Export Plug-In . SVG Version: 6.00 Build 0)  -->
<svg version="1.1" id="Layer_1" xmlns="http://www.w3.org/2000/svg" xmlns:xlink="http://www.w3.org/1999/xlink" x="0px" y="0px"
	 viewBox="0 0 512 512" style="enable-background:new 0 0 512 512;" xml:space="preserve">
<style type="text/css">
	.st0{fill:#F44437;}
	.st1{display:none;}
	.st2{display:inline;fill:#C9003E;}
	.st3{fill:#FFFFFF;}
</style>
<g>
	<circle class="st0" cx="256" cy="256" r="256"/>
</g>
<g class="st1">
	<circle class="st2" cx="256" cy="256" r="169"/>
</g>
<g>
	<path class="st3" d="M138.1,374.9L138.1,374.9c-10.7-10.7-10.7-28.2,0-38.9l198-198c10.7-10.7,28.2-10.7,38.9,0l0,0
		c10.7,10.7,10.7,28.2,0,38.9l-198,198C166.3,385.6,148.8,385.6,138.1,374.9z"/>
	<path class="st3" d="M373.9,374.9L373.9,374.9c-10.7,10.7-28.2,10.7-38.9,0l-198-198c-10.7-10.7-10.7-28.2,0-38.9l0,0
		c10.7-10.7,28.2-10.7,38.9,0l198,198C384.6,346.7,384.6,364.2,373.9,374.9z"/>
</g>
</svg>
