<?xml version="1.0" encoding="utf-8"?>
<!-- Generator: Adobe Illustrator 22.0.0, SVG Export Plug-In . SVG Version: 6.00 Build 0)  -->
<svg version="1.1" id="Layer_1" xmlns="http://www.w3.org/2000/svg" xmlns:xlink="http://www.w3.org/1999/xlink" x="0px" y="0px"
	 viewBox="0 0 512 512" style="enable-background:new 0 0 512 512;" xml:space="preserve">
<style type="text/css">
	.st0{fill:#5FA7FF;}
	.st1{display:none;}
	.st2{display:inline;fill:#C9003E;}
	.st3{fill:#FFFFFF;}
</style>
<g>
	<circle class="st0" cx="256" cy="256" r="256"/>
</g>
<g class="st1">
	<circle class="st2" cx="256" cy="256" r="169"/>
</g>
<g>
	<g>
		<circle class="st3" cx="256.7" cy="257" r="27.3"/>
	</g>
</g>
<g>
	<g>
		<path class="st3" d="M256.7,177.3c-44,0-79.7,35.8-79.7,79.7s35.8,79.7,79.7,79.7s79.7-35.8,79.7-79.7S300.7,177.3,256.7,177.3z
			 M256.7,308.7c-28.5,0-51.7-23.2-51.7-51.7s23.2-51.7,51.7-51.7s51.7,23.2,51.7,51.7C308.4,285.5,285.2,308.7,256.7,308.7z"/>
	</g>
</g>
<g>
	<g>
		<path class="st3" d="M425.9,226.5c-7.4-11.4-28.4-40.7-62.5-66.2c-34.6-25.8-70.6-39-107.2-39c-36.5,0-72.6,13.1-107.2,38.8
			c-34.3,25.5-55.4,54.7-62.9,66.1c-12.3,18.7-12.3,42.8,0,61.4c7.5,11.4,28.6,40.6,62.9,66.1c34.7,25.8,70.8,38.8,107.2,38.8
			c56.2,0,101.3-31.3,129.3-57.6c5.6-5.3,5.9-14.1,0.6-19.8c-5.3-5.6-14.1-5.9-19.8-0.6c-24.3,22.8-63.2,50-110.2,50
			c-67.9,0-124.2-58-146.7-92.3c-6.1-9.3-6.1-21.4,0-30.7c22.6-34.3,78.8-92.3,146.7-92.3s123.8,58.1,146.2,92.4
			c6,9.3,6,21.3,0,30.5c-4.2,6.5-2.4,15.1,4.1,19.3c6.5,4.2,15.1,2.4,19.3-4.1C438,269,438,245,425.9,226.5z"/>
	</g>
</g>
</svg>
