<?xml version="1.0" encoding="utf-8"?>
<!-- Generator: Adobe Illustrator 22.0.0, SVG Export Plug-In . SVG Version: 6.00 Build 0)  -->
<svg version="1.1" id="Layer_1" xmlns="http://www.w3.org/2000/svg" xmlns:xlink="http://www.w3.org/1999/xlink" x="0px" y="0px"
	 viewBox="0 0 512 512" style="enable-background:new 0 0 512 512;" xml:space="preserve">
<style type="text/css">
	.st0{fill:#56DE4C;}
	.st1{display:none;}
	.st2{display:inline;fill:#C9003E;}
	.st3{fill:#FFFFFF;}
</style>
<g>
	<circle class="st0" cx="256" cy="256" r="256"/>
</g>
<g class="st1">
	<circle class="st2" cx="256" cy="256" r="169"/>
</g>
<g>
	<g id="tick">
		<g>
			<path class="st3" d="M387.7,154c-10.7-10.7-28.1-10.7-38.8,0L185.6,317.3L142.2,280c-10.6-10.6-27.7-10.6-38.3,0
				c-10.6,10.6-10.6,27.7,0,38.3l64.9,55.7c10.6,10.6,27.7,10.6,38.3,0c1.1-1.1,1.9-2.2,2.8-3.4c0.2-0.1,0.3-0.2,0.5-0.4
				l177.3-177.3C398.4,182.1,398.4,164.8,387.7,154z"/>
		</g>
	</g>
</g>
</svg>
